<?xml version="1.0" encoding="UTF-8"?>
<svg width="400" height="600" viewBox="0 0 400 600" fill="none" xmlns="http://www.w3.org/2000/svg">
  <!-- Background -->
  <rect width="400" height="600" fill="#1a1a2e" stroke="#4a4a68" stroke-width="4"/>
  
  <!-- Title -->
  <text x="200" y="40" text-anchor="middle" fill="#d4af37" font-family="serif" font-size="24" font-weight="bold">FIVE OF PENTACLES</text>
  
  <!-- Five Pentacles arranged in a pattern -->
  <!-- Top two pentacles -->
  <g transform="translate(120, 100)">
    <polygon points="30,5 36,19 52,19 40,29 45,44 30,34 15,44 20,29 8,19 24,19" fill="#d4af37" stroke="#ffd700" stroke-width="2"/>
    <circle cx="30" cy="25" r="12" fill="none" stroke="#d4af37" stroke-width="2"/>
  </g>
  <g transform="translate(250, 100)">
    <polygon points="30,5 36,19 52,19 40,29 45,44 30,34 15,44 20,29 8,19 24,19" fill="#d4af37" stroke="#ffd700" stroke-width="2"/>
    <circle cx="30" cy="25" r="12" fill="none" stroke="#d4af37" stroke-width="2"/>
  </g>
  
  <!-- Middle pentacle -->
  <g transform="translate(185, 200)">
    <polygon points="30,5 36,19 52,19 40,29 45,44 30,34 15,44 20,29 8,19 24,19" fill="#d4af37" stroke="#ffd700" stroke-width="2"/>
    <circle cx="30" cy="25" r="12" fill="none" stroke="#d4af37" stroke-width="2"/>
  </g>
  
  <!-- Bottom two pentacles -->
  <g transform="translate(120, 300)">
    <polygon points="30,5 36,19 52,19 40,29 45,44 30,34 15,44 20,29 8,19 24,19" fill="#d4af37" stroke="#ffd700" stroke-width="2"/>
    <circle cx="30" cy="25" r="12" fill="none" stroke="#d4af37" stroke-width="2"/>
  </g>
  <g transform="translate(250, 300)">
    <polygon points="30,5 36,19 52,19 40,29 45,44 30,34 15,44 20,29 8,19 24,19" fill="#d4af37" stroke="#ffd700" stroke-width="2"/>
    <circle cx="30" cy="25" r="12" fill="none" stroke="#d4af37" stroke-width="2"/>
  </g>
  
  <!-- Central imagery representing hardship -->
  <g transform="translate(200, 400)">
    <!-- Broken window or church window suggesting seeking help -->
    <rect x="-40" y="-60" width="80" height="100" fill="none" stroke="#8b7355" stroke-width="3"/>
    <line x1="-40" y1="-10" x2="40" y2="-10" stroke="#8b7355" stroke-width="2"/>
    <line x1="0" y1="-60" x2="0" y2="40" stroke="#8b7355" stroke-width="2"/>
    
    <!-- Figures representing those in need -->
    <circle cx="-20" cy="0" r="8" fill="#6b5b73" stroke="#8b7355" stroke-width="1"/>
    <rect x="-25" y="8" width="10" height="20" fill="#4a4a68" stroke="#6b5b73" stroke-width="1"/>
    
    <circle cx="20" cy="0" r="8" fill="#6b5b73" stroke="#8b7355" stroke-width="1"/>
    <rect x="15" y="8" width="10" height="20" fill="#4a4a68" stroke="#6b5b73" stroke-width="1"/>
  </g>
  
  <!-- Snow or harsh weather elements -->
  <circle cx="80" cy="450" r="2" fill="#e6e6fa" opacity="0.7"/>
  <circle cx="320" cy="480" r="2" fill="#e6e6fa" opacity="0.7"/>
  <circle cx="150" cy="520" r="2" fill="#e6e6fa" opacity="0.7"/>
  <circle cx="270" cy="500" r="2" fill="#e6e6fa" opacity="0.7"/>
  
  <!-- Decorative border -->
  <rect x="20" y="20" width="360" height="560" fill="none" stroke="#d4af37" stroke-width="2" opacity="0.5"/>
</svg> 