<?xml version="1.0" encoding="UTF-8"?>
<svg width="400" height="600" viewBox="0 0 400 600" fill="none" xmlns="http://www.w3.org/2000/svg">
  <!-- Background -->
  <rect width="400" height="600" fill="#1a1a2e" stroke="#4a4a68" stroke-width="4"/>
  
  <!-- Title -->
  <text x="200" y="40" text-anchor="middle" fill="#d4af37" font-family="serif" font-size="22" font-weight="bold">TEN OF PENTACLES</text>
  
  <!-- Ten Pentacles arranged in the Tree of Life pattern -->
  <!-- Top level -->
  <g transform="translate(150, 100)">
    <polygon points="20,5 24,15 36,15 28,22 31,32 20,26 9,32 12,22 4,15 16,15" fill="#d4af37" stroke="#ffd700" stroke-width="2"/>
    <circle cx="20" cy="19" r="8" fill="none" stroke="#d4af37" stroke-width="2"/>
  </g>
  <g transform="translate(230, 100)">
    <polygon points="20,5 24,15 36,15 28,22 31,32 20,26 9,32 12,22 4,15 16,15" fill="#d4af37" stroke="#ffd700" stroke-width="2"/>
    <circle cx="20" cy="19" r="8" fill="none" stroke="#d4af37" stroke-width="2"/>
  </g>
  
  <!-- Second level -->
  <g transform="translate(190, 160)">
    <polygon points="20,5 24,15 36,15 28,22 31,32 20,26 9,32 12,22 4,15 16,15" fill="#d4af37" stroke="#ffd700" stroke-width="2"/>
    <circle cx="20" cy="19" r="8" fill="none" stroke="#d4af37" stroke-width="2"/>
  </g>
  
  <!-- Third level -->
  <g transform="translate(120, 220)">
    <polygon points="20,5 24,15 36,15 28,22 31,32 20,26 9,32 12,22 4,15 16,15" fill="#d4af37" stroke="#ffd700" stroke-width="2"/>
    <circle cx="20" cy="19" r="8" fill="none" stroke="#d4af37" stroke-width="2"/>
  </g>
  <g transform="translate(260, 220)">
    <polygon points="20,5 24,15 36,15 28,22 31,32 20,26 9,32 12,22 4,15 16,15" fill="#d4af37" stroke="#ffd700" stroke-width="2"/>
    <circle cx="20" cy="19" r="8" fill="none" stroke="#d4af37" stroke-width="2"/>
  </g>
  
  <!-- Fourth level -->
  <g transform="translate(190, 280)">
    <polygon points="20,5 24,15 36,15 28,22 31,32 20,26 9,32 12,22 4,15 16,15" fill="#d4af37" stroke="#ffd700" stroke-width="2"/>
    <circle cx="20" cy="19" r="8" fill="none" stroke="#d4af37" stroke-width="2"/>
  </g>
  
  <!-- Fifth level -->
  <g transform="translate(90, 340)">
    <polygon points="20,5 24,15 36,15 28,22 31,32 20,26 9,32 12,22 4,15 16,15" fill="#d4af37" stroke="#ffd700" stroke-width="2"/>
    <circle cx="20" cy="19" r="8" fill="none" stroke="#d4af37" stroke-width="2"/>
  </g>
  <g transform="translate(190, 340)">
    <polygon points="20,5 24,15 36,15 28,22 31,32 20,26 9,32 12,22 4,15 16,15" fill="#d4af37" stroke="#ffd700" stroke-width="2"/>
    <circle cx="20" cy="19" r="8" fill="none" stroke="#d4af37" stroke-width="2"/>
  </g>
  <g transform="translate(290, 340)">
    <polygon points="20,5 24,15 36,15 28,22 31,32 20,26 9,32 12,22 4,15 16,15" fill="#d4af37" stroke="#ffd700" stroke-width="2"/>
    <circle cx="20" cy="19" r="8" fill="none" stroke="#d4af37" stroke-width="2"/>
  </g>
  
  <!-- Bottom pentacle -->
  <g transform="translate(190, 400)">
    <polygon points="20,5 24,15 36,15 28,22 31,32 20,26 9,32 12,22 4,15 16,15" fill="#d4af37" stroke="#ffd700" stroke-width="2"/>
    <circle cx="20" cy="19" r="8" fill="none" stroke="#d4af37" stroke-width="2"/>
  </g>
  
  <!-- Family archway/gate representing legacy -->
  <g transform="translate(200, 480)">
    <!-- Archway -->
    <path d="M -60 40 L -60 -20 Q -60 -40 -40 -40 L 40 -40 Q 60 -40 60 -20 L 60 40" 
          stroke="#8b7355" stroke-width="4" fill="none"/>
    
    <!-- Family figures -->
    <!-- Elder/Patriarch -->
    <g transform="translate(-30, 0)">
      <circle cx="0" cy="-10" r="8" fill="#8b7355" stroke="#d4af37" stroke-width="2"/>
      <rect x="-5" y="0" width="10" height="20" fill="#654321" stroke="#8b7355" stroke-width="2"/>
      <!-- Staff representing wisdom -->
      <line x1="-8" y1="0" x2="-8" y2="-20" stroke="#8b4513" stroke-width="3"/>
    </g>
    
    <!-- Adult figure -->
    <g transform="translate(0, 5)">
      <circle cx="0" cy="-10" r="6" fill="#8b7355" stroke="#d4af37" stroke-width="2"/>
      <rect x="-4" y="0" width="8" height="18" fill="#4a4a68" stroke="#8b7355" stroke-width="2"/>
    </g>
    
    <!-- Child figure -->
    <g transform="translate(25, 15)">
      <circle cx="0" cy="-5" r="4" fill="#8b7355" stroke="#d4af37" stroke-width="1"/>
      <rect x="-3" y="0" width="6" height="12" fill="#6b5b73" stroke="#8b7355" stroke-width="1"/>
    </g>
    
    <!-- Family dog -->
    <g transform="translate(-50, 25)">
      <ellipse cx="0" cy="0" rx="8" ry="4" fill="#654321"/>
      <circle cx="6" cy="-2" r="3" fill="#654321"/>
      <line x1="4" y1="4" x2="2" y2="8" stroke="#654321" stroke-width="2"/>
      <line x1="0" y1="4" x2="-2" y2="8" stroke="#654321" stroke-width="2"/>
      <line x1="-4" y1="4" x2="-6" y2="8" stroke="#654321" stroke-width="2"/>
      <line x1="-8" y1="4" x2="-10" y2="8" stroke="#654321" stroke-width="2"/>
    </g>
  </g>
  
  <!-- Connecting lines showing family tree/legacy -->
  <path d="M 170 119 L 210 179" stroke="#d4af37" stroke-width="1" opacity="0.5"/>
  <path d="M 250 119 L 210 179" stroke="#d4af37" stroke-width="1" opacity="0.5"/>
  <path d="M 210 179 L 140 239" stroke="#d4af37" stroke-width="1" opacity="0.5"/>
  <path d="M 210 179 L 280 239" stroke="#d4af37" stroke-width="1" opacity="0.5"/>
  
  <!-- Decorative elements representing established wealth -->
  <rect x="50" y="550" width="300" height="8" fill="#8b7355" stroke="#654321" stroke-width="2"/>
  
  <!-- Decorative border -->
  <rect x="20" y="20" width="360" height="560" fill="none" stroke="#d4af37" stroke-width="2" opacity="0.5"/>
</svg> 